PathFileType	4	(X/Y/Z)	S1_rest_slow_right.trc
DataRate	CameraRate	NumFrames	NumMarkers	Units	OrigDataRate	OrigDataStartFrame	OrigNumFrames
250.00	250.00	10	18	mm	250.00	1	25073
Frame#	Time	c7	r_should	l_should	clavicle	r_upa	r_elb_l	r_elb_m	r_low	r_wri_l	r_wri_m	r_met	l_upa	l_elb_l	l_elb_m	l_low	l_wri_l	l_wri_m	l_met
	X1	Y1	Z1	X2	Y2	Z2	X3	Y3	Z3	X4	Y4	Z4	X5	Y5	Z5	X6	Y6	Z6	X7	Y7	Z7	X8	Y8	Z8	X9	Y9	Z9	X10	Y10	Z10	X11	Y11	Z11	X12	Y12	Z12	X13	Y13	Z13	X14	Y14	Z14	X15	Y15	Z15	X16	Y16	Z16	X17	Y17	Z17	X18	Y18	Z18
1	0.00000	426.21786	1427.28735	33.54759	524.24469	1351.50830	197.32526	441.54532	1371.97314	-158.34616	546.98828	1290.95166	-1.11325	505.87552	1148.71777	263.25674	516.47089	1050.95923	275.03036	435.82095	1031.79797	214.71416	495.13904	914.95630	259.83145	577.51135	843.98029	250.79036	535.45294	834.09485	189.06642	570.36700	758.17505	263.37900	542.82965	1216.57959	-250.69699	582.78943	1185.78076	-272.84802	592.19257	1099.70496	-208.61060	694.75024	1199.23193	-208.26364	688.82623	1300.84351	-152.13426	743.05225	1255.27930	-141.70689	738.48083	1361.41614	-124.73078
2	0.00400	426.23459	1427.22437	33.65614	524.20599	1351.43750	197.44048	441.82474	1371.80115	-158.50986	547.09229	1290.96765	-1.03157	505.80203	1148.58325	263.30170	516.42358	1050.85718	275.04630	435.82141	1031.70422	214.67918	495.14627	914.83984	259.78036	577.51099	843.90131	250.79742	535.50995	834.02374	189.03398	570.35382	758.08673	263.36597	542.02765	1216.00842	-251.09804	581.78168	1185.00549	-273.37210	590.74121	1098.78809	-209.25218	694.03156	1197.39783	-209.03764	689.11218	1298.95667	-152.65826	742.97748	1252.94641	-142.49942	739.41138	1359.05457	-125.22849
3	0.00800	426.25320	1427.16919	33.76751	524.16718	1351.35779	197.56023	441.89090	1371.83374	-158.48354	547.19348	1290.98315	-0.95282	505.75720	1148.49609	263.33981	516.38068	1050.74695	275.06693	435.81833	1031.60120	214.63187	495.13931	914.72998	259.73532	577.51154	843.82007	250.80267	535.57117	833.95135	189.00040	570.34277	757.99072	263.34302	541.22919	1215.43896	-251.48341	580.76343	1184.20374	-273.87347	589.22034	1097.87598	-209.91238	693.29950	1195.57764	-209.81134	689.40820	1297.03906	-153.20178	742.86926	1250.55737	-143.29871	740.33643	1356.64600	-125.72511
4	0.01200	426.26889	1427.11072	33.87403	524.12616	1351.26685	197.68462	442.07590	1371.75635	-158.56984	547.29651	1290.99963	-0.87065	505.69128	1148.37671	263.38586	516.34192	1050.65332	275.08051	435.82556	1031.50488	214.58133	495.13925	914.62189	259.68497	577.50940	843.73346	250.80991	535.63788	833.87616	188.96114	570.32898	757.89355	263.31485	540.41461	1214.88293	-251.87376	579.72858	1183.42175	-274.37167	587.66534	1096.99268	-210.67654	692.54803	1193.71851	-210.59254	689.68823	1295.11487	-153.73422	742.75610	1248.12439	-144.11040	741.26550	1354.20264	-126.21793
5	0.01600	426.28467	1427.05591	33.98368	524.08240	1351.17529	197.81842	442.05002	1371.87781	-158.44142	547.39868	1291.02393	-0.78687	505.66196	1148.34253	263.45328	516.23474	1050.64258	275.03586	435.82010	1031.41284	214.53033	495.13766	914.50250	259.62729	577.51477	843.64893	250.81729	535.70270	833.79944	188.92299	570.31335	757.79651	263.28452	539.58093	1214.32373	-252.26077	578.70514	1182.64966	-274.88599	586.08771	1096.14941	-211.38811	691.78119	1191.86157	-211.35678	689.96490	1293.17883	-154.26376	742.63153	1245.65625	-144.93509	742.20557	1351.73279	-126.73357
6	0.02000	426.29849	1427.01343	34.09930	524.03558	1351.08679	197.95163	442.22015	1371.82300	-158.49629	547.49976	1291.05176	-0.70304	505.60492	1148.23535	263.50201	516.10138	1050.65698	274.97226	435.82141	1031.31360	214.46970	495.13654	914.38531	259.56839	577.52405	843.56012	250.81941	535.77283	833.72260	188.88554	570.29559	757.69348	263.25906	538.74316	1213.75720	-252.64040	577.65875	1181.86511	-275.39700	584.67700	1095.31763	-211.98788	690.99664	1189.98401	-212.12578	690.24695	1291.20374	-154.79762	742.49469	1243.17603	-145.74973	743.16711	1349.20923	-127.25378
7	0.02400	426.31161	1426.96814	34.20792	523.99475	1350.99927	198.08752	442.44736	1371.71863	-158.57959	547.60809	1291.08704	-0.61838	505.53149	1148.10962	263.55185	516.11102	1050.49060	275.03122	435.81964	1031.21387	214.41666	495.13437	914.27722	259.51859	577.53595	843.46606	250.81909	535.84778	833.64233	188.84296	570.28143	757.59235	263.22873	537.89905	1213.20337	-253.00652	576.58990	1181.07703	-275.87158	583.20471	1094.46460	-212.62845	690.19244	1188.09082	-212.90324	690.51501	1289.19385	-155.36540	742.34320	1240.67920	-146.59798	744.12042	1346.63745	-127.75789
8	0.02800	426.31912	1426.91443	34.31692	523.95319	1350.91418	198.21745	442.53589	1371.74951	-158.51445	547.71136	1291.13147	-0.53192	505.50885	1148.06604	263.60675	515.95697	1050.55688	274.94919	435.82034	1031.11169	214.37318	495.13358	914.17120	259.46976	577.55005	843.37573	250.82260	535.92279	833.56421	188.80626	570.26447	757.49219	263.19772	537.04547	1212.65344	-253.37016	575.53333	1180.31506	-276.39221	581.65546	1093.60632	-213.25130	689.39984	1186.19995	-213.69534	690.77209	1287.16821	-155.88945	742.17084	1238.15295	-147.47592	745.06335	1344.03235	-128.27371
9	0.03200	426.33148	1426.86536	34.43504	523.90344	1350.83081	198.34206	442.76425	1371.66785	-158.57278	547.80701	1291.17566	-0.44799	505.44928	1147.92090	263.62912	515.90588	1050.48633	274.93704	435.83572	1031.00867	214.31865	495.13297	914.06329	259.41418	577.56653	843.28070	250.82085	536.00781	833.47632	188.75684	570.24957	757.39551	263.16611	536.18402	1212.10547	-253.71942	574.46771	1179.55945	-276.90814	580.03107	1092.73413	-213.96178	688.59625	1184.28088	-214.50301	691.02869	1285.11670	-156.41838	741.96826	1235.60596	-148.33197	746.00641	1341.39734	-128.79578
10	0.03600	426.33807	1426.81592	34.54655	523.86285	1350.74695	198.46910	442.78400	1371.78052	-158.41963	547.90533	1291.21692	-0.35645	505.38672	1147.75842	263.63641	515.88049	1050.38098	274.93680	435.85767	1030.91125	214.25952	495.13470	913.95160	259.35675	577.59009	843.17902	250.81831	536.09784	833.38354	188.70398	570.23407	757.29327	263.13657	535.31989	1211.56079	-254.06387	573.37762	1178.78723	-277.38403	578.37500	1091.88367	-214.65739	687.75732	1182.36182	-215.30618	691.25342	1283.03247	-156.95070	741.73846	1233.04236	-149.16341	746.93829	1338.70020	-129.30927
